<svg width="27" height="25" viewBox="0 0 27 25" fill="none" xmlns="http://www.w3.org/2000/svg">
<path d="M6.89613 9.12978C6.6013 9.29501 6.3753 9.43108 6.14027 9.55119C5.8197 9.71503 5.52 9.67129 5.30095 9.38943C4.40601 8.23906 3.51803 7.08314 2.64047 5.91958C2.41169 5.61619 2.46732 5.26351 2.7712 5.02608C3.87475 4.16452 4.97622 3.29949 6.10132 2.46709C6.78765 1.96098 7.58594 1.68328 8.44681 1.5C8.44194 4.35127 10.0844 5.84738 12.6427 6.63188C12.3179 7.33792 11.9925 8.04953 11.665 8.75974C11.3458 9.45191 11.0336 10.1468 10.704 10.8335C10.3577 11.5548 10.3577 12.2546 10.8778 12.8801C11.3736 13.4765 12.0307 13.7944 12.8179 13.6299C13.6503 13.4556 14.1273 12.8968 14.2851 12.0713C14.6085 12.0567 14.9416 12.0949 15.2447 12.0178C16.454 11.7103 16.9978 10.4121 16.3768 9.32625C15.9123 8.51398 15.4137 7.72115 14.9304 6.91929C14.8713 6.82071 14.8115 6.72282 14.7427 6.60897C17.2245 5.80086 18.8356 4.30823 18.8217 1.50069C19.7076 1.67634 20.5289 1.9825 21.2409 2.51082C22.3375 3.32448 23.4098 4.17007 24.4848 5.0122C24.8158 5.27185 24.8603 5.62522 24.6065 5.95984C23.747 7.09355 22.8806 8.2224 22.0086 9.34638C21.7541 9.67476 21.4516 9.72544 21.0886 9.52966C20.8675 9.41095 20.6519 9.28182 20.378 9.12492C20.3981 11.7513 20.241 14.3262 20.759 16.8401C16.6125 17.1851 15.1314 19.7434 15.0271 23.5H12.1865C12.2832 21.7915 11.9306 20.2183 10.8403 18.8784C9.74437 17.5323 8.33624 16.8255 6.49421 16.9283C7.02617 14.3387 6.8711 11.7624 6.89752 9.12769L6.89613 9.12978Z" fill="#4C4C4D"/>
<path d="M17.4861 1.5C17.5845 3.01033 16.9341 4.06617 15.7511 4.79837C14.2826 5.70736 12.7941 5.66072 11.3652 4.69676C10.266 3.95551 9.68138 2.92403 9.78527 1.50348C12.3522 2.11805 14.8963 2.13685 17.4861 1.5Z" fill="#4C4C4D"/>
<path d="M10.9047 23.5C8.32404 23.3172 6.62895 20.9293 6.54102 18.3227C7.28702 18.2278 7.98697 18.3497 8.64575 18.7201C10.3374 19.6706 11.1252 21.6985 10.9047 23.5Z" fill="#4C4C4D"/>
<path d="M20.7282 18.3345C20.7014 20.6238 19.2008 23.2921 16.4676 23.5C16.0527 20.6252 18.305 17.9174 20.7282 18.3345Z" fill="#4C4C4D"/>
<path d="M13.0057 9.25163C13.0057 10.0961 13.0071 10.9413 13.005 11.7858C13.0043 12.0295 12.908 12.2297 12.6562 12.3248C12.3596 12.4361 12.1199 12.3017 11.9167 12.1211C11.737 11.9616 11.702 11.7572 11.8104 11.5346C12.1848 10.7648 12.555 9.99293 12.9265 9.22244C12.9529 9.23195 12.9793 9.24213 13.0057 9.25163Z" fill="#4C4C4D"/>
<path d="M14.3426 8.50409C14.639 9.00345 14.9606 9.48969 15.2168 10.0091C15.2917 10.1617 15.2358 10.4428 15.1377 10.5996C15.0682 10.7101 14.8202 10.764 14.6635 10.7454C14.4115 10.7157 14.2759 10.5043 14.2704 10.2522C14.2582 9.67963 14.2663 9.10706 14.2663 8.53448C14.2922 8.52412 14.3174 8.51445 14.3433 8.50409H14.3426Z" fill="#4C4C4D"/>
</svg>
