<svg width="23" height="21" viewBox="0 0 23 21" fill="none" xmlns="http://www.w3.org/2000/svg">
<path d="M17.9695 10.388V10.8962C17.9695 13.7472 17.9695 16.5973 17.9695 19.4483C17.9695 20.2744 17.7443 20.5 16.9177 20.5C13.3102 20.5 9.70347 20.5 6.09594 20.5C5.27176 20.5 5.04735 20.2736 5.04654 19.4458C5.04654 16.5949 5.04654 13.7448 5.04654 10.8938V10.388C4.80034 10.5229 4.60256 10.6256 4.40963 10.738C3.86395 11.056 3.58384 11.003 3.22785 10.4747C2.55461 9.47515 1.89349 8.46756 1.22672 7.46319C1.04186 7.1846 0.848124 6.91002 0.672954 6.62581C0.361363 6.1192 0.475182 5.63909 0.978896 5.31795C2.87993 4.10564 4.79146 2.90857 6.67796 1.67458C7.17037 1.35264 7.67489 1.24586 8.223 1.31731C8.46679 0.60116 8.60967 0.5 9.34748 0.5C10.7876 0.5 12.2277 0.5 13.6678 0.5C14.4088 0.5 14.5485 0.598752 14.7931 1.32213C15.6084 1.1174 16.2081 1.59751 16.8402 2.00215C18.558 3.10367 20.2806 4.19636 22 5.29467C22.5603 5.65274 22.6434 6.06381 22.281 6.60654C21.4196 7.89914 20.5591 9.19335 19.7019 10.4884C19.3701 10.9893 19.0795 11.0584 18.5588 10.7461C18.3877 10.6433 18.2182 10.5381 17.9703 10.3864L17.9695 10.388Z" fill="#262626"/>
</svg>
