<svg width="36" height="28" viewBox="0 0 36 28" fill="none" xmlns="http://www.w3.org/2000/svg">
<path d="M2.55599 12.7303L2.55598 12.7303L2.55503 12.7331C1.7624 15.0767 1.3623 17.3452 1.3623 19.5364V25.9417C1.3623 26.7701 2.03388 27.4417 2.86231 27.4417H11.0415C11.87 27.4417 12.5415 26.7701 12.5415 25.9417L12.5416 19.4637L12.5415 19.4596C12.5184 16.7092 12.9569 14.2092 13.8491 11.9531C14.6601 9.9336 15.6389 7.98643 16.7859 6.11138C17.2072 5.42264 17.0257 4.50986 16.3409 4.05353L11.8431 1.05637L11.8431 1.05637C11.2947 0.690909 10.5562 0.719431 10.0485 1.17179C8.51622 2.53707 7.12206 4.16272 5.86461 6.04519L5.86392 6.04623C4.47389 8.13844 3.37104 10.3668 2.55599 12.7303ZM20.4757 12.7303L20.4747 12.7331C19.6821 15.0767 19.282 17.3452 19.282 19.5364V25.9417C19.282 26.7701 19.9536 27.4417 20.782 27.4417H28.9613C29.7897 27.4417 30.4613 26.7701 30.4613 25.9417L30.4613 19.4637L30.4612 19.4596C30.4382 16.7092 30.8766 14.2092 31.7688 11.9531C32.5798 9.9336 33.5586 7.98643 34.7056 6.11138C35.1269 5.42264 34.9454 4.50985 34.2606 4.05353L29.7628 1.05637C29.2144 0.690908 28.4759 0.719432 27.9682 1.17179L28.3004 1.54454L27.9682 1.17179C26.4359 2.53708 25.0418 4.16272 23.7843 6.04519L23.7836 6.04623C22.3936 8.13844 21.2908 10.3668 20.4757 12.7303Z" fill="#FFE566" stroke="#FFE566"/>
</svg>
