<svg width="19" height="23" viewBox="0 0 19 23" fill="none" xmlns="http://www.w3.org/2000/svg">
<path d="M9.37186 4.40647C9.94226 4.084 10.5535 3.74663 11.1537 3.3912C11.2439 3.33785 11.3129 3.20761 11.342 3.09934C11.5342 2.38379 11.6958 1.65882 11.9022 0.947981C12.0144 0.56353 12.296 0.419165 12.5761 0.548623C12.9096 0.703188 12.9072 0.973872 12.8099 1.27908C12.6758 1.70041 12.551 2.12566 12.4271 2.55012C12.2301 3.22801 12.2741 3.87765 12.5699 4.53279C12.9418 5.35583 12.7935 6.19377 12.4043 6.95561C11.8065 8.12466 11.8881 9.2529 12.3816 10.4212C13.3325 12.6761 14.6608 14.7043 16.0809 16.6791C16.7133 17.5594 17.4022 18.3989 18.0369 19.2777C18.1538 19.4393 18.2299 19.7531 18.1491 19.8991C18.0691 20.0442 17.7576 20.1493 17.563 20.1282C15.447 19.9038 13.4565 20.3502 11.6503 21.4094C9.36009 22.7526 7.01494 22.744 4.58819 21.9853C3.274 21.5742 2.0469 20.9653 0.897467 20.2058C0.418081 19.8889 0.383559 19.67 0.73898 19.2204C2.52393 16.9639 4.2265 14.6486 5.56266 12.0916C5.97771 11.2976 6.29469 10.451 6.62343 9.61538C6.92707 8.84334 6.80232 8.07758 6.49476 7.32908C6.36138 7.00347 6.21858 6.68022 6.11109 6.34598C5.93613 5.79834 5.86159 5.21068 6.11737 4.6952C6.61088 3.70033 6.42257 2.74235 6.11109 1.76867C6.04754 1.57016 5.97143 1.37558 5.90474 1.17865C5.8051 0.885213 5.88434 0.645912 6.177 0.539208C6.46573 0.433287 6.71366 0.548623 6.79918 0.845199C7.0118 1.58193 7.18912 2.32887 7.39704 3.06795C7.43313 3.19506 7.52336 3.34256 7.63242 3.40847C8.20831 3.75683 8.79911 4.08165 9.37108 4.40725L9.37186 4.40647Z" fill="#4C4C4D"/>
</svg>
